<svg xmlns="http://www.w3.org/2000/svg" width="420" height="420" >  
  <circle fill="#c8001e" cx="213.9" cy="208.9" r="200"/>  
  <path fill-rule="nonzero" transform="matrix(0.6,0,0,0.6,186,196)" d="M -68.7 31 c 26.7 16.2 41.6 40.4 55.1 62.4 l 3 4.9 c 54.3 -72.5 106.5 -140.9 170.2 -201.2 C 227.2 -167 298 -213 367.5 -218 c 4.7 -0.3 8.9 3.2 9.2 7.9 c 0.2 2.8 -1.1 5.5 -3.2 7.1 C 301.6 -143.4 235.5 -71.3 173.3 9.8 C 111 91.4 61.6 174.1 4.9 270.5 c -7.3 12.5 -14.8 20.1 -23.9 20.8 c -9.3 0.8 -18.1 -5.5 -27.1 -20.8 l -0.2 -0.4 c -14.8 -25.2 -27 -53.8 -38.8 -81.3 c -26.1 -60.8 -49.5 -115.6 -88.6 -106.3 c -6.5 1.5 -12.1 -4.4 -10.3 -10.7 c 6.8 -22.8 22 -42.1 45.2 -50.4 c 23.7 -8.4 48.9 -3.1 69.8 9.5 z" fill="white"/>
</svg>